<svg id="Layer_1" height="512" viewBox="0 0 24 24" width="512" xmlns="http://www.w3.org/2000/svg" data-name="Layer 1"><path fill="#C70101" d="m12.28 23.15-5.14-5.15a3 3 0 0 1 -.87-2.11 3 3 0 0 1 .87-2.11 3.1 3.1 0 0 1 3.91-.27v-7.15a2.92 2.92 0 0 1 2.61-3 2.83 2.83 0 0 1 2.28.84 2.77 2.77 0 0 1 .83 2v4.9l4.23.6a2.87 2.87 0 0 1 2.45 2.84 18.28 18.28 0 0 1 -1.92 8.14l-.09.17-1.7-.85.09-.18a16.44 16.44 0 0 0 1.72-7.28 1 1 0 0 0 -.82-.95l-5.87-.84v-6.5a.9.9 0 0 0 -.27-.66.93.93 0 0 0 -.77-.29 1 1 0 0 0 -.82 1.06v11.74l-2.94-3a1.11 1.11 0 0 0 -1.52 0 1.13 1.13 0 0 0 -.31.76 1.07 1.07 0 0 0 .31.76l5.14 5.13z"/></svg>